<?xml version="1.0" encoding="UTF-8"?>
<svg id="svg2474" xmlns="http://www.w3.org/2000/svg" xmlns:svg="http://www.w3.org/2000/svg" version="1.1" viewBox="0 0 989.7 428.9">
  <!-- Generator: Adobe Illustrator 29.8.1, SVG Export Plug-In . SVG Version: 2.1.1 Build 2)  -->
  <defs>
    <style>
      .st0 {
        fill: currentColor;
      }
    </style>
  </defs>
  <path id="path2465" class="st0" d="M11.2,257.1c-2.1,0-3.7,1.6-4,3.9l-7.2,55,7.2,54c.3,2.3,1.9,3.9,4,3.9s3.6-1.6,3.9-3.8h0l8.6-54-8.6-55c-.3-2.3-2-3.9-3.9-3.9h0ZM51.9,227c-.3-2.4-2-4-4.1-4s-3.8,1.7-4.1,4l-9.7,88.9,9.7,86.9c.3,2.3,2,4,4.1,4s3.8-1.6,4.1-4l11.1-86.9-11.1-88.9ZM205.2,145c-4,0-7.3,3.3-7.5,7.4l-7.7,163.5,7.7,105.7c.2,4.1,3.5,7.4,7.5,7.4s7.3-3.3,7.5-7.4h0l8.8-105.7-8.8-163.5c-.2-4.2-3.5-7.4-7.5-7.4h0ZM125.9,201.9c-3.1,0-5.6,2.4-5.8,5.7l-8.7,108.3,8.7,104.8c.2,3.2,2.7,5.7,5.8,5.7s5.5-2.4,5.8-5.7l9.9-104.8-9.9-108.4c-.3-3.2-2.8-5.7-5.8-5.7h0ZM285.8,429c4.9,0,9-4,9.2-9.1l7.6-103.9-7.6-217.7c-.2-5.1-4.2-9.1-9.2-9.1s-9,4-9.2,9.1l-6.7,217.7,6.7,103.9c.2,5.1,4.2,9.1,9.2,9.1ZM450.9,429.5c6.8,0,12.4-5.6,12.6-12.5h0l5.3-100.9-5.3-251.4c-.1-6.9-5.7-12.5-12.6-12.5s-12.5,5.6-12.6,12.5l-4.7,251.3c0,.2,4.7,101.1,4.7,101.1.1,6.8,5.7,12.4,12.6,12.4ZM367.8,429.1c5.9,0,10.7-4.8,10.9-10.8h0l6.4-102.2-6.5-219.3c-.2-6.1-4.9-10.8-10.9-10.8s-10.7,4.7-10.9,10.8l-5.7,219.3,5.7,102.3c.1,6,4.9,10.8,10.9,10.8h.1ZM165.4,428.2c3.5,0,6.4-2.8,6.6-6.5l9.3-105.7-9.3-100.5c-.3-3.7-3.1-6.5-6.6-6.5s-6.4,2.8-6.7,6.6l-8.2,100.5,8.2,105.7c.2,3.7,3.1,6.5,6.7,6.5h0ZM86.7,422.4c2.6,0,4.7-2,5-4.8l10.5-101.6-10.5-105.5c-.3-2.8-2.4-4.9-5-4.9s-4.7,2-5,4.9l-9.2,105.5,9.2,101.6c.3,2.8,2.3,4.9,5,4.9h0ZM409.2,93.1c-6.4,0-11.6,5.1-11.7,11.7l-5.2,211.3,5.2,101.7c.1,6.5,5.3,11.6,11.7,11.6s11.6-5.1,11.7-11.7h0l5.9-101.6-5.9-211.3c-.1-6.5-5.3-11.7-11.7-11.7h0ZM245.4,429.2c4.4,0,8.1-3.6,8.3-8.3l8.2-105-8.2-200.9c-.2-4.6-3.9-8.3-8.3-8.3s-8.2,3.6-8.3,8.3l-7.2,200.9,7.2,105c.2,4.6,3.8,8.2,8.3,8.2h0ZM336.7,419.3h0l7-103.3-7-225c-.2-5.6-4.6-10-10-10s-9.9,4.4-10,10l-6.2,225,6.2,103.3c.1,5.5,4.6,9.9,10,9.9s9.8-4.4,10-9.9h0ZM867.9,186.3c-16.7,0-32.6,3.4-47.1,9.5C811.2,86.1,719.2,0,606.9,0s-54.2,5.4-77.9,14.5c-9.2,3.6-11.6,7.2-11.7,14.3v386.3c0,7.5,5.9,13.7,13.1,14.4.3,0,335.2.2,337.4.2,67.2,0,121.7-54.5,121.7-121.7s-54.5-121.7-121.7-121.7h.1ZM492.5,28.5c-7.3,0-13.3,6-13.4,13.4l-5.5,274.2,5.5,99.5c0,7.3,6.1,13.3,13.4,13.3s13.3-6,13.4-13.4h0c0,.1,6-99.4,6-99.4l-6-274.2c-.1-7.4-6.1-13.4-13.4-13.4Z"/>
</svg>